<?xml version="1.0" encoding="UTF-8" standalone="no"?><!DOCTYPE svg PUBLIC "-//W3C//DTD SVG 1.1//EN" "http://www.w3.org/Graphics/SVG/1.1/DTD/svg11.dtd"><svg width="100%" height="100%" viewBox="0 0 752 228" version="1.1" xmlns="http://www.w3.org/2000/svg" xmlns:xlink="http://www.w3.org/1999/xlink" xml:space="preserve" xmlns:serif="http://www.serif.com/" style="fill-rule:evenodd;clip-rule:evenodd;stroke-linejoin:round;stroke-miterlimit:2;"><path d="M283.894,207.016l-5.746,20.32l9.298,0l5.12,-18.102l26.6,-0l2.16,-7.636l-26.602,-0c2.282,-7.636 6.742,-10.776 14.686,-10.776l14.962,-0l2.176,-7.696l-14.162,-0c-8.188,-0 -14.228,1.538 -18.668,5.048c-5.152,4.064 -7.334,10.038 -9.824,18.842Z" style="fill:#ed1b29;fill-rule:nonzero;"/><path d="M348.782,190.822l15.27,-0l2.176,-7.696l-15.456,-0c-14.224,-0 -22.866,7.266 -27.288,22.906c-2.264,8.004 -1.684,13.792 1.844,17.426c3.336,3.448 7.34,3.878 12.696,3.878l15.702,0l2.176,-7.696l-15.27,0c-7.328,0 -9.65,-2.894 -7.464,-10.838l25.8,0l2.176,-7.696l-25.738,0c2.336,-6.958 6.664,-10.284 13.376,-10.284Z" style="fill:#ed1b29;fill-rule:nonzero;"/><path d="M383.468,183.126l-9.238,-0l-7.556,26.724c-1.584,5.602 -2.188,9.482 -0.836,11.884c2.414,4.31 7.266,6.096 14.964,6.096c7.696,-0 13.496,-1.786 18.348,-6.096c2.632,-2.34 4.346,-6.22 5.948,-11.884l7.556,-26.724l-9.298,-0l-7.488,26.478c-2.21,7.818 -5.35,11.082 -13.048,11.082c-7.696,-0 -9.052,-3.264 -6.84,-11.082l7.488,-26.478Z" style="fill:#ed1b29;fill-rule:nonzero;"/><path d="M437.69,190.822l15.272,-0l2.176,-7.696l-15.456,-0c-14.224,-0 -22.866,7.266 -27.29,22.906c-2.264,8.004 -1.684,13.792 1.846,17.426c3.334,3.448 7.338,3.878 12.696,3.878l15.702,0l2.176,-7.696l-15.27,0c-7.328,0 -9.65,-2.894 -7.466,-10.838l25.8,0l2.178,-7.696l-25.74,0c2.338,-6.958 6.664,-10.284 13.376,-10.284Z" style="fill:#ed1b29;fill-rule:nonzero;"/><path d="M463.264,183.126l-12.502,44.21l9.296,0l4.912,-17.364l10.96,0l4.818,17.364l10.468,0l-5.798,-18.472c6.074,-1.232 10.512,-5.604 12.446,-12.438c2.628,-9.298 -1.228,-13.3 -11.694,-13.3l-22.906,-0Zm18.46,7.882c5.542,-0 7.972,0.984 6.684,5.54c-1.272,4.496 -4.294,5.604 -9.836,5.604l-11.392,0l3.152,-11.144l11.392,-0Z" style="fill:#ed1b29;"/><path d="M502.394,207.016l-5.746,20.32l9.298,0l5.118,-18.102l26.602,-0l2.158,-7.636l-26.6,-0c2.282,-7.636 6.742,-10.776 14.684,-10.776l14.964,-0l2.176,-7.696l-14.162,-0c-8.19,-0 -14.228,1.538 -18.67,5.048c-5.15,4.064 -7.332,10.038 -9.822,18.842Z" style="fill:#ed1b29;fill-rule:nonzero;"/><path d="M567.28,190.822l15.272,-0l2.176,-7.696l-15.456,-0c-14.224,-0 -22.868,7.266 -27.29,22.906c-2.264,8.004 -1.684,13.792 1.846,17.426c3.336,3.448 7.338,3.878 12.696,3.878l15.702,0l2.176,-7.696l-15.27,0c-7.328,0 -9.65,-2.894 -7.466,-10.838l25.802,0l2.176,-7.696l-25.74,0c2.338,-6.958 6.664,-10.284 13.376,-10.284Z" style="fill:#ed1b29;fill-rule:nonzero;"/><path d="M628,191.008l2.23,-7.882l-24.322,-0c-10.53,-0 -16.632,3.94 -19.348,13.546c-2.508,8.866 1.032,12.684 11.13,12.684l10.96,0c4.494,0 6.258,1.17 5.144,5.112c-1.08,3.818 -3.69,4.986 -8.616,4.986l-23.276,0l-2.228,7.882l24.754,0c10.468,0 16.57,-3.94 19.198,-13.238c2.612,-9.236 -0.714,-12.5 -10.566,-12.5l-12.314,-0c-3.88,-0 -5.398,-1.6 -4.492,-4.802c1.15,-4.064 3.914,-5.788 8.78,-5.788l22.966,-0Z" style="fill:#ed1b29;fill-rule:nonzero;"/><path d="M646.792,190.884l-10.308,36.452l9.606,0l10.308,-36.452l14.346,-0l2.178,-7.696l-38.24,-0l-2.176,7.696l14.286,-0Z" style="fill:#ed1b29;fill-rule:nonzero;"/><path d="M148.214,112.584c-8.146,23.19 -30.238,39.74 -56.212,39.74c-32.896,-0 -59.564,-26.668 -59.564,-59.564c-0,-32.896 26.668,-59.564 59.564,-59.564c25.974,-0 48.12,16.572 56.268,39.762l32.542,-0.03c-9.052,-40.708 -45.376,-71.144 -88.81,-71.144c-50.244,-0 -90.976,40.732 -90.976,90.976c0,50.246 40.732,90.978 90.976,90.978c43.434,-0 79.758,-30.438 88.81,-71.146l-32.598,-0.008Z" style="fill:#074ea2;fill-rule:nonzero;"/><rect x="91.57" y="78.042" width="89.894" height="29.79" style="fill:#ed1b29;fill-rule:nonzero;"/><path d="M246.716,50.512l-21.952,-0l0,84.448l48.272,-0l0,-18.592l-26.32,-0l0,-65.856Z" style="fill:#074ea2;fill-rule:nonzero;"/><path d="M279.384,77.504l0,34.608c0,18.928 13.328,24.752 30.576,24.752c17.248,-0 30.576,-5.824 30.576,-24.752l0,-34.608l-20.384,-0l0,30.688c0,7.28 -1.792,12.432 -10.192,12.432c-8.4,0 -10.192,-5.152 -10.192,-12.432l0,-30.688l-20.384,-0Z" style="fill:#074ea2;fill-rule:nonzero;"/><path d="M373.882,77.504l-20.384,-0l-0,57.456l20.384,-0l-0,-29.792c-0,-7.168 2.352,-13.328 10.64,-13.328c10.08,-0 9.184,9.632 9.184,15.12l-0,28l20.384,-0l-0,-35.504c-0,-14.112 -6.16,-23.856 -21.616,-23.856c-7.952,0 -13.664,2.352 -18.368,9.296l-0.224,-0l-0,-7.392Z" style="fill:#074ea2;fill-rule:nonzero;"/><path d="M490.552,77.504l-20.384,-0l-0,6.048l-0.224,0c-4.032,-5.712 -10.192,-7.952 -16.912,-7.952c-17.584,0 -29.456,14.336 -29.456,31.136c-0,16.576 11.536,29.344 28.336,29.344c7.616,0 12.992,-2.576 18.256,-7.84l-0,2.688c-0,9.296 -2.128,16.464 -13.104,16.464c-1.904,-0 -4.032,-0.448 -5.824,-1.344c-1.792,-0.896 -3.248,-2.352 -3.808,-4.368l-22.848,0c1.792,15.12 19.488,21.952 32.704,21.952c21.168,0 33.264,-9.856 33.264,-34.272l0,-51.856Zm-32.816,15.344c8.288,0 13.104,5.936 13.104,12.992c-0,7.28 -4.816,12.88 -13.104,12.88c-8.288,0 -13.104,-5.6 -13.104,-12.88c-0,-7.056 4.816,-12.992 13.104,-12.992Z" style="fill:#074ea2;"/><path d="M523.658,77.504l-20.384,-0l-0,57.456l20.384,-0l0,-27.44c0,-6.384 0,-16.128 9.072,-16.128c9.072,-0 9.072,9.744 9.072,16.128l0,27.44l20.384,-0l-0,-27.44c-0,-6.832 0.336,-15.68 9.744,-15.68c8.624,-0 8.4,9.744 8.4,15.68l0,27.44l20.384,-0l-0,-36.624c-0,-13.216 -5.04,-22.736 -19.6,-22.736c-7.84,0 -15.568,3.808 -19.488,10.976c-4.144,-7.616 -11.312,-10.976 -19.6,-10.976c-7.392,0 -13.328,2.688 -18.144,9.072l-0.224,-0l0,-7.168Z" style="fill:#074ea2;fill-rule:nonzero;"/><path d="M613.652,77.504l-0,34.608c-0,18.928 13.328,24.752 30.576,24.752c17.248,-0 30.576,-5.824 30.576,-24.752l0,-34.608l-20.384,-0l-0,30.688c-0,7.28 -1.792,12.432 -10.192,12.432c-8.4,0 -10.192,-5.152 -10.192,-12.432l0,-30.688l-20.384,-0Z" style="fill:#074ea2;fill-rule:nonzero;"/><path d="M687.768,85.456l-5.824,-0l-0,16.24l5.824,-0l0,33.264l20.384,-0l-0,-63.728c-0,-6.272 0.336,-12.768 8.51,-12.768c5.264,0 8.514,3.248 8.514,8.512c0,6.72 -4.816,9.296 -11.088,9.072l0,16.24c8.174,-0.56 15.12,5.152 15.12,13.664c0,8.736 -6.61,13.888 -15.12,13.552l0,17.36l4.366,-0c8.178,-0 17.698,-1.792 24.08,-7.392c6.048,-5.152 8.96,-14.56 8.96,-22.4c0,-13.328 -5.712,-19.488 -16.688,-23.856c6.272,-4.704 9.968,-9.52 9.968,-17.584c-0,-16.352 -12.656,-24.752 -27.888,-24.752c-7.838,0 -16.352,2.016 -22.174,7.392c-6.048,5.376 -6.944,13.104 -6.944,20.72l0,16.464Z" style="fill:#074ea2;fill-rule:nonzero;"/></svg>